<?xml version="1.0" standalone="no"?>
<!DOCTYPE svg PUBLIC "-//W3C//DTD SVG 20010904//EN"
 "http://www.w3.org/TR/2001/REC-SVG-20010904/DTD/svg10.dtd">
<svg version="1.0" xmlns="http://www.w3.org/2000/svg"
 width="280.000000pt" height="280.000000pt" viewBox="0 0 280.000000 280.000000"
 preserveAspectRatio="xMidYMid meet">
<metadata>
Created by potrace 1.11, written by Peter Selinger 2001-2013
</metadata>
<g transform="translate(0.000000,280.000000) scale(0.100000,-0.100000)"
fill="#000000" stroke="none">
<path d="M0 2635 c0 -91 2 -165 5 -165 3 0 35 22 71 50 58 44 140 80 183 80 9
0 31 -9 49 -20 27 -17 32 -26 32 -57 0 -21 -11 -62 -25 -91 -23 -49 -30 -55
-92 -83 -38 -17 -83 -37 -101 -45 -34 -16 -85 -12 -109 8 -10 8 -13 -32 -13
-195 l0 -206 52 27 c29 15 75 44 101 64 28 22 65 41 87 44 47 8 46 7 99 77 24
32 49 61 55 65 14 9 48 57 69 99 23 44 69 57 176 49 47 -4 89 -10 94 -15 18
-18 -5 -70 -45 -107 -38 -34 -44 -36 -92 -32 -67 7 -76 3 -76 -35 0 -18 -6
-39 -13 -48 -17 -23 -106 -76 -156 -94 -23 -8 -63 -32 -89 -54 -26 -21 -62
-46 -81 -56 -18 -9 -52 -34 -75 -55 -22 -20 -56 -45 -73 -54 l-33 -17 0 -422
0 -423 93 -22 c50 -12 152 -31 226 -42 89 -14 149 -29 182 -45 61 -31 99 -31
143 -1 19 13 57 27 83 31 50 7 99 37 195 116 31 26 74 52 95 59 21 7 42 16 48
21 5 5 15 9 22 9 7 0 33 20 57 45 39 38 52 45 85 45 70 0 73 -7 26 -56 -24
-24 -48 -44 -54 -44 -5 0 -19 -19 -29 -42 -26 -59 -98 -132 -222 -225 -106
-79 -148 -98 -272 -124 -47 -10 -75 -9 -160 4 -57 8 -123 21 -148 27 -25 6
-79 18 -120 25 -41 8 -114 22 -163 33 l-87 19 0 -378 0 -379 318 0 319 0 39
29 c21 16 57 47 79 71 22 23 53 48 69 57 37 19 115 43 143 43 12 0 28 7 37 15
8 8 22 15 30 15 9 0 16 5 16 11 0 6 15 2 33 -10 35 -22 39 -39 40 -169 l1 -62
398 0 398 0 -10 26 c-6 14 -10 43 -10 64 0 30 5 40 20 45 11 3 20 11 20 16 0
5 6 9 14 9 8 0 47 14 87 31 110 46 127 49 157 37 51 -22 72 -56 72 -117 0 -31
-7 -68 -14 -83 l-15 -28 280 0 279 0 0 277 0 276 -20 -18 c-13 -12 -38 -20
-66 -20 -40 -2 -52 -8 -97 -52 -53 -51 -126 -91 -184 -100 -18 -3 -30 -10 -27
-15 3 -5 -3 -12 -15 -15 -12 -3 -21 -10 -21 -15 0 -6 -18 -8 -42 -5 -24 3 -86
10 -139 16 -53 5 -116 17 -141 26 -25 8 -77 21 -114 29 -38 8 -123 26 -189 41
-134 30 -278 55 -284 49 -2 -2 0 -11 4 -21 5 -10 7 -22 6 -26 0 -4 6 -10 14
-13 33 -13 5 -92 -41 -112 -43 -20 -111 -26 -144 -12 -30 13 -43 40 -56 120
-5 32 -1 39 51 89 53 50 58 53 81 41 13 -8 27 -10 30 -7 4 4 -3 34 -15 67 -29
79 -25 121 11 134 37 13 330 -19 414 -45 34 -11 107 -28 161 -40 102 -21 207
-52 251 -75 21 -10 27 -10 39 2 24 24 44 30 137 44 81 13 92 17 126 51 20 20
44 48 53 62 27 41 117 87 171 87 l46 0 0 209 0 209 -87 12 c-49 7 -103 16
-122 21 -21 5 -41 4 -52 -2 -14 -7 -32 -5 -62 5 -24 8 -146 33 -273 55 -126
23 -247 47 -269 55 -64 22 -94 27 -113 17 -9 -4 -25 -6 -35 -2 -17 6 -17 8 3
26 18 17 25 17 68 7 26 -7 112 -19 192 -27 80 -9 201 -22 270 -31 327 -39 401
-45 440 -34 l40 11 0 343 c0 282 -2 345 -14 349 -7 3 -34 9 -60 12 -25 4 -48
11 -51 15 -3 5 13 6 34 3 22 -3 51 -3 65 1 l26 6 0 360 0 360 -1400 0 -1400 0
0 -165z m1210 135 c6 -11 22 -31 36 -45 39 -39 31 -84 -19 -108 -43 -21 -77
-17 -107 13 -30 30 -25 75 11 121 34 43 63 50 79 19z m1435 -10 c16 -17 15
-19 -9 -35 -13 -9 -45 -18 -70 -20 -42 -2 -46 -1 -46 20 0 54 87 78 125 35z
m-551 11 c19 -30 -39 -127 -79 -133 -11 -2 -26 -9 -33 -15 -17 -17 -32 -16
-56 2 -19 15 -19 16 4 67 13 29 26 55 27 57 3 4 100 27 125 30 4 1 9 -3 12 -8z
m546 -152 c7 -11 20 -29 31 -40 19 -19 18 -28 -7 -85 -16 -37 -56 -49 -105
-32 -24 8 -40 8 -65 -1 -40 -15 -74 -6 -74 18 0 9 -5 22 -11 28 -19 19 -1 62
29 75 15 6 43 18 62 26 19 9 53 19 75 23 22 3 43 7 47 8 4 0 12 -8 18 -20z
m-1625 -53 c27 -40 16 -77 -30 -103 -50 -28 -65 -28 -99 -2 -42 33 -36 71 17
103 55 33 92 33 112 2z m1418 -158 c15 -21 17 -32 10 -54 -14 -42 -46 -54
-138 -51 -75 2 -80 3 -95 29 -18 33 -8 54 38 81 37 22 118 36 147 27 11 -4 28
-19 38 -32z m-829 6 c9 -3 20 -24 26 -45 19 -69 -20 -116 -143 -175 l-78 -36
-46 17 c-55 21 -109 67 -99 83 4 7 18 12 32 12 36 0 62 15 119 70 75 72 134
95 189 74z m41 -197 c10 -8 15 -19 11 -25 -10 -16 -84 -10 -91 7 -11 29 46 42
80 18z m389 -57 c156 -19 257 -37 213 -39 -9 -1 -42 -18 -73 -38 l-55 -37
-123 12 c-68 6 -130 14 -138 17 -31 12 -50 88 -25 98 19 8 20 8 201 -13z
m-961 -96 c59 -7 83 -23 73 -49 -4 -10 -19 -15 -49 -15 -33 0 -59 -10 -115
-45 -40 -24 -78 -45 -85 -46 -53 -7 -49 22 9 61 40 28 45 35 39 60 -7 32 16
53 50 45 12 -2 46 -7 78 -11z m834 -36 c48 -45 17 -97 -97 -157 -32 -17 -63
-38 -70 -46 -7 -9 -52 -43 -99 -77 -47 -34 -102 -76 -121 -94 -52 -49 -197
-142 -239 -154 -82 -23 -253 -6 -636 61 -126 22 -263 45 -302 51 -69 10 -90
22 -59 34 8 3 139 -13 293 -35 412 -60 592 -76 662 -61 65 14 134 55 175 105
15 19 47 44 70 54 22 11 67 41 100 68 32 26 80 62 106 78 53 33 150 135 150
157 0 16 19 38 34 38 5 0 20 -10 33 -22z m607 -173 c7 -29 16 -30 82 -10 63
19 104 19 104 1 0 -12 -116 -56 -148 -56 -6 0 -34 -18 -63 -40 -59 -44 -70
-47 -90 -24 -12 14 -8 20 24 46 34 28 36 33 31 69 -6 38 -6 39 24 39 24 0 31
-5 36 -25z m-2425 -149 c15 -13 50 -31 79 -41 30 -9 51 -22 49 -28 -13 -40
-164 -25 -187 18 -11 20 -10 28 4 50 20 31 24 31 55 1z m1501 -175 c0 -23 15
-35 63 -51 l39 -12 -23 -24 c-44 -47 -149 -18 -149 41 0 14 11 32 26 44 33 26
44 26 44 2z m-976 -161 c51 -19 55 -80 6 -95 -11 -4 -20 -12 -19 -18 3 -28 -3
-38 -38 -56 -85 -42 -208 -50 -274 -15 -76 39 -38 123 76 169 47 19 78 25 142
25 45 0 93 -4 107 -10z m880 -32 c9 -12 16 -30 16 -40 0 -28 -69 -98 -95 -98
-59 0 -72 31 -30 68 16 14 25 32 25 50 0 36 6 42 41 42 17 0 34 -8 43 -22z
m593 -173 c21 -9 45 -23 55 -32 12 -11 27 -14 52 -9 48 9 93 -15 112 -61 l15
-36 -41 -38 c-33 -31 -49 -39 -79 -39 -43 0 -100 17 -120 35 -11 10 -23 10
-67 -2 -88 -26 -124 -3 -129 80 -2 34 2 41 34 61 20 13 42 31 50 40 17 20 70
21 118 1z m-911 -396 c13 -15 19 -36 19 -71 0 -43 -4 -53 -33 -79 -44 -40 -93
-40 -133 0 -42 42 -40 92 5 137 28 28 41 34 78 34 33 0 50 -6 64 -21z m-784
-250 c35 -26 62 -97 54 -144 -8 -39 -38 -59 -108 -70 -21 -3 -38 -10 -38 -14
0 -5 -19 -18 -42 -30 l-42 -20 -37 21 c-51 28 -73 80 -64 146 5 40 12 52 33
63 15 7 40 22 56 33 71 48 134 53 188 15z"/>
<path d="M420 1297 c-19 -7 -35 -18 -35 -26 0 -22 42 -23 86 -1 65 34 27 53
-51 27z"/>
</g>
</svg>
